<svg xmlns="http://www.w3.org/2000/svg" viewBox="0 0 61.06 61.06"><defs><style>.cls-1{fill:#242424;}.cls-1,.cls-2{stroke:#242424;}.cls-2{fill:none;stroke-miterlimit:10;stroke-width:2px;}</style></defs><g id="Capa_2" data-name="Capa 2"><g id="Capa_1-2" data-name="Capa 1"><g id="Grupo_23" data-name="Grupo 23"><g id="Grupo_24" data-name="Grupo 24"><path id="Trazado_71" data-name="Trazado 71" class="cls-1" d="M48.62,10.18a50.41,50.41,0,0,1-1.74,11.65,19.89,19.89,0,0,1-.94,2.51.52.52,0,0,1-.43.34l-7.13,1.55-.26.07a7.15,7.15,0,0,0,6.32,1.54c.06.13,0,.21,0,.3a31.93,31.93,0,0,1-5.6,9.25,17.8,17.8,0,0,1-2.95,2.67.69.69,0,0,1-.62.12,54.42,54.42,0,0,1-6.15-1.85c-.11.11,0,.21,0,.3a6,6,0,0,0,2.73,3.59c.39.23.39.25,0,.48a8.11,8.11,0,0,1-4.43.93,16.31,16.31,0,0,1-5.9-1.46.54.54,0,0,0-.66.09l-8,6.26-.6.47a5.08,5.08,0,0,1,1.2-2.35c1.18-1.28,2.39-2.52,3.59-3.78L19.74,40a.81.81,0,0,0,.19-.38,18,18,0,0,1,5.84-9.19c4-3.49,7.94-7,11.9-10.58l10.42-9.27c.16-.14.35-.24.44-.44Z"/><path id="Trazado_72" data-name="Trazado 72" class="cls-1" d="M13.38,50c.75-.59,1.46-1.23,2.24-1.74a4,4,0,0,1,1.57-.32L29,46a6.69,6.69,0,0,1,2.23-.11,1.88,1.88,0,0,1,1.7,1.83,2,2,0,0,1-.32.92c-.16.27-.08.4.19.5a2.26,2.26,0,0,0,1.21,0q5.85-1,11.7-2.07a1,1,0,0,1,.73.05.69.69,0,0,1,.36.73.7.7,0,0,1-.62.63c-.89.16-1.78.33-2.68.48L34,50.63a3.15,3.15,0,0,1-2.11-.3,1.59,1.59,0,0,1-.8-2.09h0a1.74,1.74,0,0,1,.1-.19c.27-.55.19-.7-.43-.76a9.31,9.31,0,0,0-2.35.26L17.17,49.42l-3.5.59C13.58,50,13.5,50.07,13.38,50Z"/></g><rect id="Rectángulo_31" data-name="Rectángulo 31" class="cls-2" x="1" y="1" width="59.06" height="59.06" rx="12.91"/></g></g></g></svg>