<svg id="Capa_1" data-name="Capa 1" xmlns="http://www.w3.org/2000/svg" viewBox="0 0 98.68 140.23"><defs><style>.cls-1{fill:#fff;}</style></defs><g id="Capa_2" data-name="Capa 2"><g id="Capa_1-2" data-name="Capa 1-2"><path id="Trazado_105" data-name="Trazado 105" class="cls-1" d="M98.44,43H72.7V29A32.79,32.79,0,0,0,65.89,8.68a20.1,20.1,0,0,0-33-.07A33.06,33.06,0,0,0,26,29.3c-.08,4.49,0,9,0,13.73H.37A9,9,0,0,0,0,44.28v82.65a10.32,10.32,0,0,0,5.61,9.65,31.81,31.81,0,0,0,12.1,3.4c10,.48,20,.17,30,.15,12,0,23.91.19,35.87-.18,9.78-.3,15.09-6.28,15.09-16V47.11C98.68,45.86,98.54,44.6,98.44,43ZM32.25,43c0-9.32-1.57-18.7,3.28-27.33A15.58,15.58,0,0,1,49.32,6.28a15.31,15.31,0,0,1,13.73,9.36,24.36,24.36,0,0,1,3,9.16c.49,5.91.15,11.86.15,18.17Z" transform="translate(0.01 -0.02)"/></g></g></svg>