<svg xmlns="http://www.w3.org/2000/svg" viewBox="0 0 60.87 60.87"><defs><style>.cls-1{fill:#242424;}.cls-1,.cls-2{stroke:#242424;}.cls-2{fill:none;stroke-miterlimit:10;stroke-width:2px;}</style></defs><g id="Capa_2" data-name="Capa 2"><g id="Capa_1-2" data-name="Capa 1"><g id="Grupo_26" data-name="Grupo 26"><g id="Grupo_27-2" data-name="Grupo 27-2"><path id="Trazado_107-2" data-name="Trazado 107-2" class="cls-1" d="M40.64,31.09c0,5.4,0,10.81-.08,16.21,0,.61,0,1.22-.08,1.82,0,.16,0,.38-.15.46s-.3-.12-.42-.22c-.8-.67-1.54-1.41-2.27-2.15-2.34-2.38-4.69-4.76-7-7.14-.19-.18-.19-.18-.37,0-2.74,2.78-5.44,5.61-8.25,8.34a11.76,11.76,0,0,1-1.11,1c-.1.09-.22.22-.36.17s-.13-.25-.15-.4c-.06-.61-.07-1.23-.08-1.86-.11-11.31-.07-22.63-.11-33.94a.66.66,0,0,1,.08-.34,1.15,1.15,0,0,0,.12-.25,2.77,2.77,0,0,1,1.7-1.51.41.41,0,0,1,.19,0H38.59a.53.53,0,0,1,.28.07l.27.13a2.77,2.77,0,0,1,1.51,1.7.57.57,0,0,1,0,.26l0,16.12Z"/></g><rect id="Rectángulo_34" data-name="Rectángulo 34" class="cls-2" x="1" y="1" width="58.87" height="58.87" rx="12.91"/></g></g></g></svg>