<svg xmlns="http://www.w3.org/2000/svg" viewBox="0 0 51.63 53.22"><defs><style>.cls-1{fill:#cb123f;}.cls-2{fill:#fff;}</style></defs><g id="Capa_2" data-name="Capa 2"><g id="Capa_1-2" data-name="Capa 1"><rect id="Rectángulo_171" data-name="Rectángulo 171" class="cls-1" width="51.63" height="53.22" rx="11"/><g id="Grupo_78" data-name="Grupo 78"><path id="Trazado_114" data-name="Trazado 114" class="cls-2" d="M42.32,17.4c0,.21-.08.42-.13.64a5.21,5.21,0,0,1-1.39,2.51C38.88,22.47,37,24.4,35,26.3a5.18,5.18,0,0,1-5.83.93.34.34,0,0,0-.47.09c-.51.53-1,1-1.55,1.55a.27.27,0,0,0-.07.37A5.26,5.26,0,0,1,26,35.31l-5.5,5.5a5.34,5.34,0,0,1-2.66,1.48l-.23.07H15.82a.62.62,0,0,0-.23-.07,5.17,5.17,0,0,1-3.85-3.51,9.3,9.3,0,0,1-.26-1V36.59c0-.23.09-.46.14-.68A5.1,5.1,0,0,1,13,33.44c1.9-1.92,3.8-3.84,5.74-5.72a5,5,0,0,1,4.87-1.3,3.27,3.27,0,0,1,.82.26.22.22,0,0,0,.3-.05l1.8-1.81a.23.23,0,0,0,0-.29,5.27,5.27,0,0,1,1.18-5.86l5.49-5.48a5.29,5.29,0,0,1,3.1-1.57l.13,0h1.16c.06.06.13,0,.2.05a5.29,5.29,0,0,1,4.29,3.83l.18.79Zm-2.46-.82a2,2,0,0,0-.14-.65A2.86,2.86,0,0,0,37,14a3.07,3.07,0,0,0-2.09,1c-1,1-2,2-3.05,3l-2.36,2.37a2.86,2.86,0,0,0-.85,1.93c0,.09,0,.2,0,.25s.14-.07.2-.13c.25-.23.49-.49.75-.71a1.65,1.65,0,0,1,2.33,2.32c-.28.33-.61.63-.92.95,0,0-.12.08-.08.15s.1,0,.15.05a2.71,2.71,0,0,0,2.34-.78c1.88-1.86,3.75-3.74,5.62-5.62a2.81,2.81,0,0,0,.83-2.28ZM16.85,40a2.65,2.65,0,0,0,1.75-.7c.41-.38.81-.78,1.21-1.18l4.53-4.53a2.76,2.76,0,0,0,.83-2.34c0-.07,0-.18-.07-.21s-.12.07-.17.13c-.51.5-1,1-1.54,1.51a1.65,1.65,0,0,1-2.34-2.31c.43-.51.93-.95,1.4-1.42,0-.05.14-.09.1-.17s-.13,0-.2,0a2.76,2.76,0,0,0-1.94.8c-1.88,1.87-3.77,3.74-5.63,5.64a2.73,2.73,0,0,0-.7,2.9A2.8,2.8,0,0,0,16.85,40Z"/></g></g></g></svg>