<svg xmlns="http://www.w3.org/2000/svg" viewBox="0 0 27.41 36.43"><defs><style>.cls-1{fill:#bc1733;}</style></defs><g id="Capa_2" data-name="Capa 2"><g id="Capa_1-2" data-name="Capa 1"><g id="Grupo_29" data-name="Grupo 29"><path id="Trazado_69" data-name="Trazado 69" class="cls-1" d="M0,31.05c.11-.61.2-1.22.32-1.83,1.09-5.55,5.12-9.5,9.78-9.54,2.27,0,4.55.07,6.82,0,5.28-.22,10.39,4.93,10.48,12.54.05,3.5-.51,4.23-3.36,4.23H2.75A2.59,2.59,0,0,1,0,34.24Z"/><path id="Trazado_70" data-name="Trazado 70" class="cls-1" d="M13.69,16.74A8.33,8.33,0,0,1,5.34,8.43h0v0A8.45,8.45,0,0,1,13.71,0a8.34,8.34,0,0,1,8.35,8.34h0v.11a8.24,8.24,0,0,1-8.2,8.29Z"/></g></g></g></svg>