<svg xmlns="http://www.w3.org/2000/svg" viewBox="0 0 32.92 35.88"><defs><style>.cls-1{fill:#bc1733;}</style></defs><g id="Capa_2" data-name="Capa 2"><g id="Capa_1-2" data-name="Capa 1"><g id="Grupo_7" data-name="Grupo 7"><path id="Trazado_55" data-name="Trazado 55" class="cls-1" d="M16.47,35.87c-4.59,0-9.18,0-13.76,0A2.7,2.7,0,0,1,0,33.19c0-4.7,0-9.4,0-14.1,0-3.77,0-7.54,0-11.31A2.61,2.61,0,0,1,2.59,5.17c.76,0,1.52,0,2.28,0,.16,0,.21,0,.2-.2,0-.57,0-1.14,0-1.71A3.2,3.2,0,0,1,8.23,0h0A12.89,12.89,0,0,1,10,.07a3.17,3.17,0,0,1,2.65,3.09q0,.9,0,1.8c0,.18.05.22.23.22H20c.18,0,.22-.06.22-.23a18.78,18.78,0,0,1,0-2.12A3.15,3.15,0,0,1,23.21,0a9.54,9.54,0,0,1,2,0A3.19,3.19,0,0,1,27.86,3.2V4.94c0,.18,0,.24.23.24h2.27a2.56,2.56,0,0,1,2.56,2.56h0V33.3a2.62,2.62,0,0,1-1.68,2.44,2.8,2.8,0,0,1-.95.13H16.47Zm0-23H2.84c-.33,0-.3,0-.3.3V33.09c0,.2,0,.25.25.25,1.08,0,2.16,0,3.24,0H30.16c.17,0,.23,0,.23-.23,0-.9,0-1.8,0-2.7V13.13c0-.28,0-.28-.29-.28Zm6.32-6.72V8.81c0,.68.17.85.84.85h.94c.56,0,.75-.19.75-.75V3.33c0-.46-.22-.67-.68-.68H23.58c-.59,0-.78.19-.78.78,0,.9,0,1.8,0,2.7Zm-12.66.06V3.42c0-.58-.19-.77-.76-.77h-1c-.55,0-.74.2-.74.75V9c0,.48.21.68.69.69H9.36c.59,0,.78-.19.78-.78,0-.9,0-1.79,0-2.68Z"/></g></g></g></svg>