<svg xmlns="http://www.w3.org/2000/svg" viewBox="0 0 44.98 44.98"><defs><style>.cls-1{fill:#cf9e7d;}</style></defs><g id="Capa_2" data-name="Capa 2"><g id="Capa_1-2" data-name="Capa 1"><g id="Grupo_11" data-name="Grupo 11"><g id="Grupo_10" data-name="Grupo 10"><path id="Trazado_59" data-name="Trazado 59" class="cls-1" d="M35.3,45H9.68A9.7,9.7,0,0,1,0,35.3V9.68A9.7,9.7,0,0,1,9.68,0H35.3A9.7,9.7,0,0,1,45,9.68V35.3A9.7,9.7,0,0,1,35.3,45ZM9.68,3.5A6.18,6.18,0,0,0,3.5,9.68V35.3a6.18,6.18,0,0,0,6.18,6.18H35.3a6.2,6.2,0,0,0,6.18-6.18V9.68A6.19,6.19,0,0,0,35.3,3.5Z"/></g><path id="Trazado_60" data-name="Trazado 60" class="cls-1" d="M35.39,7.93c0,1.29,0,2.57,0,3.86,0,.52-.17.7-.7.7-1,0-2,0-3,.07a1.32,1.32,0,0,0-1.42,1.18,1.51,1.51,0,0,0,0,.3c0,1.11-.36,2.52.17,3.26s2,.16,3.08.24a4.09,4.09,0,0,0,.7,0c.57-.07.78.15.71.74-.15,1.34-.3,2.69-.42,4,0,.46-.33.52-.7.52-.78,0-1.56.05-2.33,0-1-.1-1.27.17-1.25,1.19.05,4.47,0,8.93,0,13.4,0,.78-.18,1.05-1,1-1.73-.07-3.46-.07-5.17,0-.79,0-1-.25-.94-1,.05-2.29,0-4.6,0-6.89s0-4.54,0-6.8c0-.67-.14-.94-.89-.94-1.87,0-1.87,0-1.87-1.93,0-.87,0-1.75,0-2.63,0-.5.13-.73.67-.73s1.54.33,1.94-.16.1-1.37.13-2.07a23.22,23.22,0,0,1,.17-3.12A5.45,5.45,0,0,1,28.6,7.34c2-.2,4.07,0,6.09-.11C35.22,7.21,35.41,7.41,35.39,7.93Z"/></g></g></g></svg>