<svg xmlns="http://www.w3.org/2000/svg" viewBox="0 0 50.84 53.22"><defs><style>.cls-1{fill:#cb123f;}.cls-2{fill:#fff;}</style></defs><g id="Capa_2" data-name="Capa 2"><g id="Capa_1-2" data-name="Capa 1"><rect id="Rectángulo_169" data-name="Rectángulo 169" class="cls-1" width="50.84" height="53.22" rx="11"/><g id="Grupo_11" data-name="Grupo 11"><g id="Grupo_10" data-name="Grupo 10"><path id="Trazado_59" data-name="Trazado 59" class="cls-2" d="M34.43,42.43h-18a6.82,6.82,0,0,1-6.8-6.81v-18a6.81,6.81,0,0,1,6.8-6.81h18a6.82,6.82,0,0,1,6.81,6.81v18A6.82,6.82,0,0,1,34.43,42.43Zm-18-29.17a4.34,4.34,0,0,0-4.34,4.35v18A4.34,4.34,0,0,0,16.41,40h18a4.35,4.35,0,0,0,4.34-4.35v-18a4.34,4.34,0,0,0-4.34-4.35Z"/></g><path id="Trazado_60" data-name="Trazado 60" class="cls-2" d="M34.49,16.37c0,.91,0,1.81,0,2.72,0,.37-.11.49-.49.49-.71,0-1.42,0-2.13.05a.93.93,0,0,0-1,.83h0a.74.74,0,0,0,0,.21c0,.78-.25,1.77.12,2.29s1.42.11,2.17.17a2,2,0,0,0,.49,0c.4-.05.55.11.5.53-.11.93-.21,1.88-.3,2.83,0,.33-.24.37-.49.37-.56,0-1.1,0-1.64,0s-.89.12-.88.83c0,3.14,0,6.29,0,9.42,0,.56-.13.74-.7.72-1.22,0-2.44,0-3.64,0-.55,0-.67-.17-.66-.69,0-1.61,0-3.23,0-4.84s0-3.19,0-4.78c0-.48-.1-.67-.63-.67-1.31,0-1.31,0-1.31-1.35,0-.61,0-1.24,0-1.85,0-.36.09-.51.47-.51s1.08.22,1.37-.12.07-1,.09-1.46A16.08,16.08,0,0,1,26,19.36,3.82,3.82,0,0,1,29.71,16c1.43-.14,2.86,0,4.28-.08C34.37,15.87,34.5,16,34.49,16.37Z"/></g></g></g></svg>