<svg xmlns="http://www.w3.org/2000/svg" viewBox="0 0 45.38 45.61"><defs><style>.cls-1{fill:#cf9e7d;}</style></defs><g id="Capa_2" data-name="Capa 2"><g id="Capa_1-2" data-name="Capa 1"><g id="Grupo_9" data-name="Grupo 9"><path id="Trazado_56" data-name="Trazado 56" class="cls-1" d="M22.89,45.61H13.12a11.77,11.77,0,0,1-3.8-.7,13.11,13.11,0,0,1-3.39-1.74,17.23,17.23,0,0,1-2.75-2.58,13.17,13.17,0,0,1-2-3A12.63,12.63,0,0,1,0,32.27c0-6.67,0-13.35,0-20a11.06,11.06,0,0,1,1-4.3,12,12,0,0,1,1.5-2.59A13.68,13.68,0,0,1,4.93,2.86,13.41,13.41,0,0,1,8.63.76,10.68,10.68,0,0,1,11.36.1c1.7-.17,3.4-.07,5.09-.08H32.81a8.5,8.5,0,0,1,2.35.39,14.42,14.42,0,0,1,2.15.76A13.27,13.27,0,0,1,40.12,3a21.91,21.91,0,0,1,2.32,2.3A11.29,11.29,0,0,1,44,7.61,13.5,13.5,0,0,1,45.14,11a10.14,10.14,0,0,1,.24,1.73c0,6.84,0,13.69,0,20.53a11.12,11.12,0,0,1-.72,3.55,14.13,14.13,0,0,1-1,2.21A10.76,10.76,0,0,1,42.28,41a12.86,12.86,0,0,1-5.61,3.9,12.55,12.55,0,0,1-1.82.5,10.12,10.12,0,0,1-1.64.23ZM41.73,22.38c-.07-2.8.12-6.29-.08-9.78a8,8,0,0,0-.51-2.27,10.56,10.56,0,0,0-1.51-2.68,11.1,11.1,0,0,0-3.11-2.76,8.69,8.69,0,0,0-4.58-1.24c-6.64,0-13.27-.11-19.9.07A6.21,6.21,0,0,0,10.61,4,9.16,9.16,0,0,0,6.89,6,9,9,0,0,0,4.68,8.82a10.33,10.33,0,0,0-1,4.67c0,1.45,0,2.91,0,4.37.05,5-.11,10,.09,15a7.18,7.18,0,0,0,.5,2.38A8.75,8.75,0,0,0,6.1,38.36a13.72,13.72,0,0,0,2.61,2.26A9.28,9.28,0,0,0,13.47,42q9.47,0,18.92,0a9.46,9.46,0,0,0,2.59-.4,8.64,8.64,0,0,0,2.83-1.41A9.28,9.28,0,0,0,41,36.05a10.1,10.1,0,0,0,.73-3.88c0-3,0-6.07,0-9.79Z"/><path id="Trazado_57" data-name="Trazado 57" class="cls-1" d="M22.64,11.09a9.66,9.66,0,0,1,5,1,11.26,11.26,0,0,1,3.93,3.05,10.63,10.63,0,0,1,1.57,2.3A13.33,13.33,0,0,1,34,20a13.19,13.19,0,0,1,.29,3.49,10.8,10.8,0,0,1-.44,2.7,10.92,10.92,0,0,1-1.74,3.58,11.51,11.51,0,0,1-2.24,2.33A11.29,11.29,0,0,1,26.37,34a7.66,7.66,0,0,1-2.36.5c-.36,0-.72.09-1.1.08a12.29,12.29,0,0,1-3.52-.46,13.2,13.2,0,0,1-2.67-1.17,11.38,11.38,0,0,1-3.19-2.8,10.65,10.65,0,0,1-1.94-3.6,10,10,0,0,1-.48-2.36,14.84,14.84,0,0,1,0-2,16.73,16.73,0,0,1,.26-2.1,16,16,0,0,1,.81-2.39,9.74,9.74,0,0,1,1.59-2.42,14.46,14.46,0,0,1,1.76-1.74,11.14,11.14,0,0,1,3.94-2A8.35,8.35,0,0,1,22.64,11.09Zm0,19.85A9,9,0,0,0,26,30.2a7.79,7.79,0,0,0,4.44-5.37A10.26,10.26,0,0,0,30.61,22a6.82,6.82,0,0,0-.25-1.42,7.74,7.74,0,0,0-1.07-2.4A7.36,7.36,0,0,0,27,15.93a8.07,8.07,0,0,0-3-1.14,7.64,7.64,0,0,0-3.88.32,7.51,7.51,0,0,0-3.91,2.94,8.17,8.17,0,0,0-1.44,4.1c0,.49,0,1,0,1.45a5.85,5.85,0,0,0,.44,2.1,7.91,7.91,0,0,0,2.13,3.16,8.44,8.44,0,0,0,2.71,1.64,9.13,9.13,0,0,0,2.59.44Z"/><path id="Trazado_58" data-name="Trazado 58" class="cls-1" d="M34.52,13.79a3.14,3.14,0,0,1-3.17-3.1h0a3.08,3.08,0,0,1,3-3.14h.14a3,3,0,0,1,3.15,2.93v.18a3.08,3.08,0,0,1-3,3.14Z"/></g></g></g></svg>