<svg xmlns="http://www.w3.org/2000/svg" viewBox="0 0 51.63 53.22"><defs><style>.cls-1{fill:#cb123f;}.cls-2{fill:#fff;}</style></defs><g id="Capa_2" data-name="Capa 2"><g id="Capa_1-2" data-name="Capa 1"><rect id="Rectángulo_168" data-name="Rectángulo 168" class="cls-1" width="51.63" height="53.22" rx="11"/><g id="Grupo_9" data-name="Grupo 9"><path id="Trazado_56" data-name="Trazado 56" class="cls-2" d="M26,42.65H19.09a8.35,8.35,0,0,1-2.67-.49A9.17,9.17,0,0,1,14,40.93a11.47,11.47,0,0,1-1.93-1.82A9.17,9.17,0,0,1,10.71,37a9,9,0,0,1-.85-3.75c0-4.7,0-9.39,0-14.09a7.87,7.87,0,0,1,.72-3,8.88,8.88,0,0,1,1.05-1.82,10,10,0,0,1,1.68-1.76,9.28,9.28,0,0,1,2.6-1.47,7.49,7.49,0,0,1,1.92-.47,35.68,35.68,0,0,1,3.58-.05H32.94a5.69,5.69,0,0,1,1.64.27,10.17,10.17,0,0,1,1.52.54,9.11,9.11,0,0,1,2,1.26,14.57,14.57,0,0,1,1.63,1.61,7.78,7.78,0,0,1,1.07,1.65,9.1,9.1,0,0,1,.82,2.42,6.3,6.3,0,0,1,.17,1.21c0,4.82,0,9.63,0,14.44a7.69,7.69,0,0,1-.51,2.5,8.65,8.65,0,0,1-.7,1.55,8.08,8.08,0,0,1-.95,1.36,9.16,9.16,0,0,1-4,2.74,9.31,9.31,0,0,1-1.28.35,7.4,7.4,0,0,1-1.15.16ZM39.2,26.31c-.05-2,.09-4.42-.06-6.87a5.15,5.15,0,0,0-.35-1.6A7.2,7.2,0,0,0,37.72,16,7.63,7.63,0,0,0,35.54,14a6.18,6.18,0,0,0-3.22-.87c-4.67,0-9.33-.08-14,0a4.27,4.27,0,0,0-1,.17,6.46,6.46,0,0,0-2.61,1.41,6.19,6.19,0,0,0-1.55,2,7.16,7.16,0,0,0-.74,3.28c0,1,0,2.05,0,3.07,0,3.52-.08,7,.06,10.54a5,5,0,0,0,.35,1.67,6.14,6.14,0,0,0,1.32,2.21A9.31,9.31,0,0,0,16,39.13a6.47,6.47,0,0,0,3.34.95c4.44,0,8.87,0,13.31,0a7,7,0,0,0,1.82-.28,6.19,6.19,0,0,0,2-1,6.57,6.57,0,0,0,2.24-2.89,7.11,7.11,0,0,0,.51-2.73c0-2.14,0-4.27,0-6.89Z"/><path id="Trazado_57" data-name="Trazado 57" class="cls-2" d="M25.79,18.37a6.76,6.76,0,0,1,3.5.72,8,8,0,0,1,2.76,2.14,7.84,7.84,0,0,1,1.1,1.62,8.53,8.53,0,0,1,.62,1.78A9.17,9.17,0,0,1,34,27.08a8.2,8.2,0,0,1-.31,1.9,7.85,7.85,0,0,1-1.22,2.52,8.32,8.32,0,0,1-4.05,3,5.53,5.53,0,0,1-1.66.35c-.25,0-.51.06-.77.06a8.67,8.67,0,0,1-2.48-.33,9.74,9.74,0,0,1-1.87-.82,8,8,0,0,1-2.25-2A7.66,7.66,0,0,1,18,29.24a7.31,7.31,0,0,1-.34-1.66A8.56,8.56,0,0,1,18.4,23a6.65,6.65,0,0,1,1.11-1.7,9.6,9.6,0,0,1,1.24-1.23,7.87,7.87,0,0,1,2.77-1.43A5.82,5.82,0,0,1,25.79,18.37Zm0,14a6.37,6.37,0,0,0,2.35-.52A5.48,5.48,0,0,0,31.26,28a7.31,7.31,0,0,0,.13-2,5.67,5.67,0,0,0-.18-1,5.57,5.57,0,0,0-.75-1.69,5.3,5.3,0,0,0-1.64-1.59,5.57,5.57,0,0,0-2.1-.79,5.54,5.54,0,0,0-5.47,2.29,5.75,5.75,0,0,0-1,2.88c0,.34,0,.68,0,1a4.16,4.16,0,0,0,.3,1.48,5.72,5.72,0,0,0,1.5,2.22,5.49,5.49,0,0,0,3.74,1.46Z"/><path id="Trazado_58" data-name="Trazado 58" class="cls-2" d="M34.13,20.27a2.2,2.2,0,0,1-2.22-2.18h0A2.17,2.17,0,0,1,34,15.87h.1a2.15,2.15,0,0,1,2.22,2.06v.13a2.17,2.17,0,0,1-2.12,2.21h-.1Z"/></g></g></g></svg>