<svg xmlns="http://www.w3.org/2000/svg" viewBox="0 0 60.87 60.87"><defs><style>.cls-1{fill:#242424;}.cls-2{fill:none;stroke:#242424;stroke-miterlimit:10;stroke-width:2px;}</style></defs><g id="Capa_2" data-name="Capa 2"><g id="Capa_1-2" data-name="Capa 1"><g id="Grupo_25-2" data-name="Grupo 25-2"><g id="Trazado_73" data-name="Trazado 73"><path id="Trazado_69" data-name="Trazado 69" class="cls-1" d="M28.67,28.36q0,3.66,0,7.31c0,.29-.08.38-.36.36a5.24,5.24,0,0,0-1,0c-.24,0-.29-.08-.28-.3,0-1.78,0-3.56,0-5.34q0-4.63,0-9.29c0-.32.09-.41.4-.38a6.31,6.31,0,0,0,.87,0c.3,0,.35.09.35.36C28.67,23.51,28.67,25.93,28.67,28.36Z"/></g><g id="Trazado_74" data-name="Trazado 74"><path id="Trazado_70" data-name="Trazado 70" class="cls-1" d="M32.33,28.33c0-2.43,0-4.85,0-7.28,0-.25,0-.36.32-.33s.65-.13.84.06.05.54.05.82q0,5,0,10.09c0,1.34,0,2.67,0,4,0,.24,0,.34-.3.32s-.66.12-.85-.06,0-.55-.06-.84Q32.32,31.73,32.33,28.33Z"/></g><g id="Trazado_75" data-name="Trazado 75"><path id="Trazado_71-2" data-name="Trazado 71-2" class="cls-1" d="M12.9,28.33c0-2.42,0-4.83,0-7.25,0-.31.1-.39.38-.36a2.17,2.17,0,0,0,.51,0c.27,0,.32.08.32.34V35.71c0,.24,0,.34-.3.32s-.65.11-.84-.06-.06-.55-.06-.84Q12.89,31.73,12.9,28.33Z"/></g><g id="Trazado_76" data-name="Trazado 76"><path id="Trazado_72-2" data-name="Trazado 72-2" class="cls-1" d="M35.56,28.37c0-2.44,0-4.88,0-7.32,0-.27.08-.36.33-.33s.64-.12.82.05,0,.54,0,.82q0,7,0,14c0,.42,0,.42-.42.42-.78,0-.78,0-.78-.79Z"/></g><g id="Trazado_77" data-name="Trazado 77"><path id="Trazado_73-2" data-name="Trazado 73-2" class="cls-1" d="M21,28.4v7.24c0,.28-.05.39-.36.39-.85,0-.85,0-.85-.85v-14c0-.42,0-.42.41-.42.79,0,.79,0,.79.78Q21,25,21,28.4Z"/></g><g id="Trazado_78" data-name="Trazado 78"><path id="Trazado_74-2" data-name="Trazado 74-2" class="cls-1" d="M26.65,28.4c0,2.42,0,4.85,0,7.28,0,.34-.15.35-.4.34s-.42,0-.42-.33q0-7.33,0-14.66c0-.28.1-.33.34-.32.53,0,.47-.06.47.46Z"/></g><g id="Trazado_79" data-name="Trazado 79"><path id="Trazado_75-2" data-name="Trazado 75-2" class="cls-1" d="M25.43,28.36V35.7c0,.1.08.27-.09.3a1.14,1.14,0,0,1-.66,0c-.09,0,0-.18,0-.27,0-1.53,0-3.06,0-4.59,0-2,0-4.06,0-6.09,0-1.33,0-2.65,0-4,0-.38.21-.3.43-.32s.39,0,.39.33C25.42,23.48,25.43,25.92,25.43,28.36Z"/></g><g id="Trazado_80" data-name="Trazado 80"><path id="Trazado_76-2" data-name="Trazado 76-2" class="cls-1" d="M14.52,28.36c0-2.44,0-4.87,0-7.31,0-.39.2-.32.42-.33s.39,0,.39.32q0,7.34,0,14.67c0,.36-.19.31-.4.31s-.41,0-.4-.31Z"/></g><g id="Trazado_81" data-name="Trazado 81"><path id="Trazado_77-2" data-name="Trazado 77-2" class="cls-1" d="M21.81,28.36c0-2.43,0-4.87,0-7.31,0-.38.19-.32.41-.33s.39,0,.39.33q0,7.32,0,14.63c0,.39-.2.33-.44.35s-.37-.05-.36-.35C21.82,33.24,21.81,30.8,21.81,28.36Z"/></g><g id="Trazado_82" data-name="Trazado 82"><path id="Trazado_78-2" data-name="Trazado 78-2" class="cls-1" d="M11.66,29.53v8.58c0,.15-.08.17-.2.17s-.2-.05-.18-.19V20.87c0-.15.1-.14.2-.15s.18,0,.18.17,0,.53,0,.8Z"/></g><g id="Trazado_83" data-name="Trazado 83"><path id="Trazado_79-2" data-name="Trazado 79-2" class="cls-1" d="M12.48,29.5v8.61c0,.15-.09.17-.21.17s-.18,0-.18-.17,0-.22,0-.32V20.92c0-.13,0-.2.18-.2s.22,0,.21.2c0,.38,0,.76,0,1.13Z"/></g><g id="Trazado_84" data-name="Trazado 84"><path id="Trazado_80-2" data-name="Trazado 80-2" class="cls-1" d="M49.72,29.5v8.64c0,.15-.1.14-.2.14s-.18,0-.18-.13V20.93c0-.16.06-.2.21-.2s.18.06.18.2v8.58Z"/></g><g id="Trazado_85" data-name="Trazado 85"><path id="Trazado_81-2" data-name="Trazado 81-2" class="cls-1" d="M29.91,29.5V21.05c0-.14-.08-.35.2-.33.12,0,.19,0,.18.17a1.21,1.21,0,0,0,0,.19c0,3.5,0,7,0,10.49q0,3.16,0,6.31a.67.67,0,0,0,0,.2c0,.16-.07.2-.21.2s-.18-.07-.18-.2V36.94C29.9,34.46,29.91,32,29.91,29.5Z"/></g><g id="Trazado_86" data-name="Trazado 86"><path id="Trazado_82-2" data-name="Trazado 82-2" class="cls-1" d="M31.09,29.5v8.64c0,.13-.08.14-.17.14s-.21,0-.21-.13,0-.3,0-.45V20.93c0-.16.05-.21.2-.21s.19.07.18.2V29.5Z"/></g><g id="Trazado_87" data-name="Trazado 87"><path id="Trazado_83-2" data-name="Trazado 83-2" class="cls-1" d="M48.9,29.53V38c0,.14.08.35-.2.34-.12,0-.19,0-.18-.17s0-.24,0-.36V21.08a.86.86,0,0,0,0-.16c0-.13,0-.2.18-.2s.21,0,.21.2c0,.7,0,1.4,0,2.1Q48.9,26.28,48.9,29.53Z"/></g><g id="Trazado_88" data-name="Trazado 88"><path id="Trazado_84-2" data-name="Trazado 84-2" class="cls-1" d="M34.74,28.4v7.28c0,.11.06.25-.07.33s-.32,0-.32-.24V21c0-.11-.08-.28.12-.32s.28.06.28.27c0,.87,0,1.73,0,2.59Z"/></g><g id="Trazado_89" data-name="Trazado 89"><path id="Trazado_85-2" data-name="Trazado 85-2" class="cls-1" d="M16.54,28.33V21.05c0-.12-.09-.3.14-.33s.27,0,.25.2a1.71,1.71,0,0,0,0,.32V35.71c0,.14.06.31-.2.31s-.2-.18-.2-.31V28.33Z"/></g><g id="Trazado_90" data-name="Trazado 90"><path id="Trazado_86-2" data-name="Trazado 86-2" class="cls-1" d="M44.45,28.4v7.35c0,.14,0,.28-.2.28s-.2-.15-.2-.29V21c0-.12-.06-.28.18-.29s.21.15.21.29v7.38Z"/></g><g id="Trazado_91" data-name="Trazado 91"><path id="Trazado_87-2" data-name="Trazado 87-2" class="cls-1" d="M37.57,28.36V35.7c0,.11.08.28-.12.32s-.27-.07-.27-.28c0-1.36,0-2.72,0-4.07V21c0-.15,0-.31.21-.3s.18,0,.18.17a1.77,1.77,0,0,0,0,.23Z"/></g><g id="Trazado_92" data-name="Trazado 92"><path id="Trazado_88-2" data-name="Trazado 88-2" class="cls-1" d="M38,28.37V21c0-.14-.07-.32.19-.31s.2.05.19.19V35.67c0,.11.06.25-.06.33a.31.31,0,0,1-.25,0c-.12,0-.07-.17-.07-.25V28.38Z"/></g><g id="Trazado_93" data-name="Trazado 93"><path id="Trazado_89-2" data-name="Trazado 89-2" class="cls-1" d="M46.07,28.4v7.48c0,.14-.08.14-.19.14s-.2,0-.19-.15V21.08c0-.11-.07-.25.05-.33a.39.39,0,0,1,.26,0c.11,0,.07.14.07.22V28.4Z"/></g><g id="Trazado_94" data-name="Trazado 94"><path id="Trazado_90-2" data-name="Trazado 90-2" class="cls-1" d="M46.88,28.36v7.35c0,.12.09.3-.16.31s-.24,0-.22-.19V21.05c0-.11-.08-.27.08-.32s.3,0,.3.26c0,2,0,3.9,0,5.85Z"/></g><g id="Trazado_95" data-name="Trazado 95"><path id="Trazado_91-2" data-name="Trazado 91-2" class="cls-1" d="M42.86,28.36V21c0-.12-.08-.3.17-.3s.23,0,.21.2V35.74c0,.11.07.26-.16.28s-.23-.11-.23-.28V28.36Z"/></g><g id="Trazado_96" data-name="Trazado 96"><path id="Trazado_92-2" data-name="Trazado 92-2" class="cls-1" d="M17.75,28.34V21c0-.15,0-.32.21-.3s.19,0,.18.17V35.78c0,.12,0,.24-.18.24s-.21-.08-.21-.24V28.34Z"/></g><g id="Trazado_97" data-name="Trazado 97"><path id="Trazado_93-2" data-name="Trazado 93-2" class="cls-1" d="M18.57,28.33V21c0-.14-.07-.35.21-.32.12,0,.19.05.17.17v14.9c0,.13,0,.23-.18.23s-.2-.1-.2-.24V28.33Z"/></g><g id="Trazado_98" data-name="Trazado 98"><path id="Trazado_94-2" data-name="Trazado 94-2" class="cls-1" d="M23.43,28.33V21c0-.15,0-.32.21-.3s.19,0,.18.16V35.77c0,.14,0,.25-.2.25s-.19-.13-.19-.26V28.33Z"/></g><g id="Trazado_99" data-name="Trazado 99"><path id="Trazado_95-2" data-name="Trazado 95-2" class="cls-1" d="M29.47,28.38v7.31c0,.1.07.27-.08.32s-.31,0-.3-.26c0-1.53,0-3.06,0-4.59V21c0-.11-.08-.28.13-.31s.27,0,.25.22c0,.38,0,.77,0,1.16Z"/></g><g id="Trazado_100" data-name="Trazado 100"><path id="Trazado_96-2" data-name="Trazado 96-2" class="cls-1" d="M31.52,28.34V20.86c0-.12.09-.14.18-.13s.21,0,.21.13v15c0,.12-.1.12-.19.12s-.18,0-.19-.12a2.26,2.26,0,0,1,0-.26Q31.52,32,31.52,28.34Z"/></g><g id="Trazado_101" data-name="Trazado 101"><path id="Trazado_97-2" data-name="Trazado 97-2" class="cls-1" d="M42,28.36V35.7c0,.14.08.33-.19.32s-.2,0-.19-.19V21c0-.1-.08-.25.11-.28s.28,0,.28.25c0,1.29,0,2.59,0,3.88Z"/></g><g id="Trazado_102" data-name="Trazado 102"><path id="Trazado_98-2" data-name="Trazado 98-2" class="cls-1" d="M40.41,28.36v7.35c0,.12.08.3-.16.31S40,36,40,35.84V21.05c0-.1-.08-.26.07-.31s.32,0,.31.25c0,1.14,0,2.28,0,3.43Z"/></g><g id="_0_000000_000000_0" data-name=" 0 000000 000000 0"><g id="Grupo_24-2-2" data-name="Grupo 24-2-2"><path id="Trazado_99-2" data-name="Trazado 99-2" class="cls-1" d="M8.58,39.94a.77.77,0,0,1-.24-.63V38.1a.8.8,0,0,1,.24-.63,1.06,1.06,0,0,1,1.32,0,.87.87,0,0,1,.24.63v1.21a.81.81,0,0,1-.24.63,1,1,0,0,1-.66.24A.89.89,0,0,1,8.58,39.94Zm1-.24a.47.47,0,0,0,.14-.37V38.08a.46.46,0,0,0-.14-.36.52.52,0,0,0-.37-.14.5.5,0,0,0-.37.14.46.46,0,0,0-.14.36v1.25a.47.47,0,0,0,.14.37.55.55,0,0,0,.37.14.57.57,0,0,0,.37-.14Z"/><path id="Trazado_100-2" data-name="Trazado 100-2" class="cls-1" d="M14.32,39.94a.84.84,0,0,1-.24-.63V38.1a.87.87,0,0,1,.24-.63,1.06,1.06,0,0,1,1.32,0,.84.84,0,0,1,.25.63v1.21a.81.81,0,0,1-.25.63,1,1,0,0,1-1.32,0Zm1-.24a.5.5,0,0,0,.13-.37V38.08a.49.49,0,0,0-.13-.36.54.54,0,0,0-.38-.14.5.5,0,0,0-.37.14.54.54,0,0,0-.14.36v1.25a.48.48,0,0,0,.51.51A.59.59,0,0,0,15.36,39.7Z"/><path id="Trazado_101-2" data-name="Trazado 101-2" class="cls-1" d="M16.66,39.94a.84.84,0,0,1-.24-.63V38.1a.87.87,0,0,1,.24-.63,1.06,1.06,0,0,1,1.32,0,.84.84,0,0,1,.25.63v1.21a.81.81,0,0,1-.25.63,1,1,0,0,1-1.32,0Zm1-.24a.5.5,0,0,0,.13-.37V38.08a.49.49,0,0,0-.13-.36.54.54,0,0,0-.38-.14.52.52,0,0,0-.37.14.54.54,0,0,0-.14.36v1.25a.55.55,0,0,0,.14.37.57.57,0,0,0,.37.14.57.57,0,0,0,.38-.14Z"/><path id="Trazado_102-2" data-name="Trazado 102-2" class="cls-1" d="M19,39.94a.81.81,0,0,1-.25-.63V38.1a.84.84,0,0,1,.25-.63.91.91,0,0,1,.65-.23.94.94,0,0,1,.66.23.84.84,0,0,1,.25.63v1.21a.81.81,0,0,1-.25.63,1,1,0,0,1-.66.24A.91.91,0,0,1,19,39.94Zm1-.24a.55.55,0,0,0,.14-.37V38.08a.54.54,0,0,0-.14-.36.53.53,0,0,0-.38-.14.52.52,0,0,0-.37.14.49.49,0,0,0-.13.36v1.25a.5.5,0,0,0,.13.37.57.57,0,0,0,.37.14A.57.57,0,0,0,20.05,39.7Z"/><path id="Trazado_103" data-name="Trazado 103" class="cls-1" d="M21.36,39.94a.81.81,0,0,1-.24-.63V38.1a.83.83,0,0,1,.24-.63,1.06,1.06,0,0,1,1.32,0,.8.8,0,0,1,.24.63v1.21a.77.77,0,0,1-.24.63,1,1,0,0,1-.66.24A.9.9,0,0,1,21.36,39.94Zm1-.24a.47.47,0,0,0,.14-.37V38.08a.46.46,0,0,0-.14-.36.56.56,0,0,0-.74,0,.46.46,0,0,0-.14.36v1.25a.47.47,0,0,0,.14.37.57.57,0,0,0,.75,0Z"/><path id="Trazado_104" data-name="Trazado 104" class="cls-1" d="M23.71,39.94a.81.81,0,0,1-.25-.63V38.1a.84.84,0,0,1,.25-.63,1,1,0,0,1,1.31,0,.84.84,0,0,1,.25.63v1.21a.81.81,0,0,1-.25.63.93.93,0,0,1-.66.24A.88.88,0,0,1,23.71,39.94Zm1-.24a.55.55,0,0,0,.14-.37V38.08a.54.54,0,0,0-.14-.36.53.53,0,0,0-.38-.14.48.48,0,0,0-.36.14.46.46,0,0,0-.14.36v1.25a.47.47,0,0,0,.14.37.52.52,0,0,0,.36.14A.57.57,0,0,0,24.74,39.7Z"/><path id="Trazado_105" data-name="Trazado 105" class="cls-1" d="M26.05,39.94a.84.84,0,0,1-.24-.63V38.1a.87.87,0,0,1,.24-.63,1.06,1.06,0,0,1,1.32,0,.84.84,0,0,1,.25.63v1.21a.81.81,0,0,1-.25.63,1,1,0,0,1-1.32,0Zm1-.24a.47.47,0,0,0,.14-.37V38.08a.46.46,0,0,0-.14-.36.56.56,0,0,0-.74,0,.54.54,0,0,0-.14.36v1.25a.48.48,0,0,0,.51.51.59.59,0,0,0,.38-.14Z"/><path id="Trazado_106" data-name="Trazado 106" class="cls-1" d="M33.5,39.94a.81.81,0,0,1-.25-.63V38.1a.84.84,0,0,1,.25-.63.91.91,0,0,1,.65-.23.94.94,0,0,1,.66.23.84.84,0,0,1,.25.63v1.21a.81.81,0,0,1-.25.63.93.93,0,0,1-.66.24A.88.88,0,0,1,33.5,39.94Zm1-.24a.55.55,0,0,0,.14-.37V38.08a.54.54,0,0,0-.14-.36.53.53,0,0,0-.38-.14.5.5,0,0,0-.36.14.45.45,0,0,0-.14.36v1.25a.47.47,0,0,0,.14.37.52.52,0,0,0,.36.14.57.57,0,0,0,.38-.14Z"/><path id="Trazado_107" data-name="Trazado 107" class="cls-1" d="M35.84,39.94a.84.84,0,0,1-.24-.63V38.1a.87.87,0,0,1,.24-.63,1.06,1.06,0,0,1,1.32,0,.84.84,0,0,1,.25.63v1.21a.81.81,0,0,1-.25.63,1,1,0,0,1-.66.24A.9.9,0,0,1,35.84,39.94Zm1-.24a.47.47,0,0,0,.14-.37V38.08a.46.46,0,0,0-.14-.36.56.56,0,0,0-.74,0,.54.54,0,0,0-.14.36v1.25a.52.52,0,0,0,.88.37Z"/><path id="Trazado_108" data-name="Trazado 108" class="cls-1" d="M38.19,39.94a.77.77,0,0,1-.24-.63V38.1a.8.8,0,0,1,.24-.63.92.92,0,0,1,.66-.23,1,1,0,0,1,.66.23.87.87,0,0,1,.24.63v1.21a.84.84,0,0,1-.24.63,1,1,0,0,1-.66.24A.93.93,0,0,1,38.19,39.94Zm1-.24a.47.47,0,0,0,.14-.37V38.08a.46.46,0,0,0-.14-.36.52.52,0,0,0-.37-.14.5.5,0,0,0-.37.14.46.46,0,0,0-.14.36v1.25a.47.47,0,0,0,.14.37.55.55,0,0,0,.37.14A.57.57,0,0,0,39.22,39.7Z"/><path id="Trazado_109" data-name="Trazado 109" class="cls-1" d="M40.54,39.94a.81.81,0,0,1-.25-.63V38.1a.84.84,0,0,1,.25-.63,1,1,0,0,1,1.31,0,.84.84,0,0,1,.25.63v1.21a.81.81,0,0,1-.25.63,1,1,0,0,1-1.31,0Zm1-.24a.47.47,0,0,0,.14-.37V38.08a.54.54,0,0,0-.14-.36.53.53,0,0,0-.38-.14.5.5,0,0,0-.36.14.45.45,0,0,0-.14.36v1.25a.47.47,0,0,0,.14.37.52.52,0,0,0,.36.14.57.57,0,0,0,.38-.14Z"/><path id="Trazado_110" data-name="Trazado 110" class="cls-1" d="M42.88,39.94a.81.81,0,0,1-.25-.63V38.1a.84.84,0,0,1,.25-.63,1,1,0,0,1,1.31,0,.84.84,0,0,1,.25.63v1.21a.81.81,0,0,1-.25.63,1,1,0,0,1-1.31,0Zm1-.24a.47.47,0,0,0,.14-.37V38.08a.54.54,0,0,0-.14-.36.53.53,0,0,0-.38-.14.5.5,0,0,0-.36.14.45.45,0,0,0-.14.36v1.25a.47.47,0,0,0,.14.37.52.52,0,0,0,.36.14.57.57,0,0,0,.38-.14Z"/><path id="Trazado_111" data-name="Trazado 111" class="cls-1" d="M45.22,39.94a.84.84,0,0,1-.24-.63V38.1a.87.87,0,0,1,.24-.63,1.06,1.06,0,0,1,1.32,0,.84.84,0,0,1,.25.63v1.21a.81.81,0,0,1-.25.63,1,1,0,0,1-1.32,0Zm1-.24a.55.55,0,0,0,.14-.37V38.08a.48.48,0,0,0-.52-.5.5.5,0,0,0-.37.14.52.52,0,0,0-.14.36v1.25a.48.48,0,0,0,.51.51A.59.59,0,0,0,46.26,39.7Z"/><path id="Trazado_112" data-name="Trazado 112" class="cls-1" d="M51,39.94a.77.77,0,0,1-.24-.63V38.1a.8.8,0,0,1,.24-.63,1.06,1.06,0,0,1,1.32,0,.87.87,0,0,1,.24.63v1.21a.81.81,0,0,1-.24.63,1,1,0,0,1-.66.24A.89.89,0,0,1,51,39.94Zm1-.24a.47.47,0,0,0,.14-.37V38.08a.46.46,0,0,0-.14-.36.52.52,0,0,0-.37-.14.5.5,0,0,0-.37.14.46.46,0,0,0-.14.36v1.25a.47.47,0,0,0,.14.37.55.55,0,0,0,.37.14A.57.57,0,0,0,52,39.7Z"/></g></g></g><rect id="Rectángulo_32" data-name="Rectángulo 32" class="cls-2" x="1" y="1" width="58.87" height="58.87" rx="12.91"/></g></g></svg>