<svg xmlns="http://www.w3.org/2000/svg" viewBox="0 0 156.52 205.18"><defs><style>.cls-1{opacity:0.5;}.cls-2{fill:#cb123f;}</style></defs><g id="Capa_2" data-name="Capa 2"><g id="Capa_1-2" data-name="Capa 1"><path class="cls-1" d="M0,101.39c0,1,0,2,.07,3v-5.9C0,99.42,0,100.4,0,101.39Z"/><rect class="cls-2" x="115.85" width="40.68" height="52.22"/><path class="cls-2" d="M57.92,43.47a57.67,57.67,0,0,1,30,8.34V78.48a38.37,38.37,0,1,0,8.42,24V58l.08.07V0H.07V98.44A57.93,57.93,0,0,1,57.92,43.47Z"/><path class="cls-2" d="M115.85,101.39a57.93,57.93,0,0,1-57.93,57.93h98.6V72.6H115.85Z"/><path class="cls-2" d="M15.14,188.76a12.4,12.4,0,0,1-.48,3.39A7.35,7.35,0,0,1,13.09,195a7.56,7.56,0,0,1-2.88,2,11.52,11.52,0,0,1-4.46.75H1.87a1.64,1.64,0,0,1-1.64-1.64V175.25a1.64,1.64,0,0,1,1.64-1.65H5.75a12,12,0,0,1,4.42.72,8.21,8.21,0,0,1,2.92,1.92,7.43,7.43,0,0,1,1.57,2.81,11.76,11.76,0,0,1,.48,3.3Zm-2.74-6.41a8.81,8.81,0,0,0-.31-2.4A5.45,5.45,0,0,0,11,178a4.93,4.93,0,0,0-1.85-1.31,7.76,7.76,0,0,0-2.85-.44H3v18.86H6.33a6.94,6.94,0,0,0,2.85-.52,4.57,4.57,0,0,0,1.88-1.37,5,5,0,0,0,1-2,9.23,9.23,0,0,0,.31-2.47Z"/><path class="cls-2" d="M24.68,195.72a6.07,6.07,0,0,0,1.88-.27c.52-.18,1.1-.42,1.68-.69a1.65,1.65,0,0,1,.21-.07.74.74,0,0,1,.27,0,1.13,1.13,0,0,1,.86.34,1.19,1.19,0,0,1,.34.86,1.25,1.25,0,0,1-.58,1,4.64,4.64,0,0,1-1.47.68A14.5,14.5,0,0,1,26,198a16,16,0,0,1-1.64.11,6.69,6.69,0,0,1-2.57-.45,5.22,5.22,0,0,1-3.12-3,5.86,5.86,0,0,1-.42-2.23V186a6.26,6.26,0,0,1,.42-2.3,5.15,5.15,0,0,1,1.2-1.85,5.56,5.56,0,0,1,1.95-1.2,7.34,7.34,0,0,1,2.71-.44,5.64,5.64,0,0,1,4.29,1.5,5.83,5.83,0,0,1,1.4,4.09,5,5,0,0,1-1.34,3.7c-.92.92-2.4,1.37-4.45,1.37-.52,0-1.1,0-1.68-.07a15.06,15.06,0,0,1-1.82-.24v2a2.91,2.91,0,0,0,1,2.3A3.88,3.88,0,0,0,24.68,195.72Zm2.91-9.94a3.28,3.28,0,0,0-.79-2.44,3.44,3.44,0,0,0-2.33-.72,3.74,3.74,0,0,0-2.6.82,3,3,0,0,0-.93,2.3v2.61c.65.1,1.3.13,2,.17s1.24.07,1.58.07a4.17,4.17,0,0,0,1.58-.24,2.73,2.73,0,0,0,.92-.65,1.71,1.71,0,0,0,.45-.9A5,5,0,0,0,27.59,185.78Z"/><path class="cls-2" d="M49.88,198.09a7,7,0,0,1-2.78-.48,5,5,0,0,1-2-1.27,5.31,5.31,0,0,1-1.23-2,6.87,6.87,0,0,1-.41-2.4v-5.72a7,7,0,0,1,.41-2.4,5.44,5.44,0,0,1,1.23-1.93,5.59,5.59,0,0,1,2-1.3,8.29,8.29,0,0,1,5.56,0,6,6,0,0,1,2,1.3,5.66,5.66,0,0,1,1.2,1.93,6.76,6.76,0,0,1,.41,2.4V192a6.65,6.65,0,0,1-.41,2.4,5.51,5.51,0,0,1-1.2,2,5.39,5.39,0,0,1-2,1.27A7,7,0,0,1,49.88,198.09Zm0-2.47a3.77,3.77,0,0,0,2.81-1,3.73,3.73,0,0,0,.93-2.68v-5.76a3.63,3.63,0,0,0-.93-2.64,3.77,3.77,0,0,0-2.81-1,3.67,3.67,0,0,0-2.78,1,3.53,3.53,0,0,0-1,2.64V192a3.62,3.62,0,0,0,1,2.68A3.67,3.67,0,0,0,49.88,195.62Z"/><path class="cls-2" d="M60.37,176.52a1.25,1.25,0,0,1,.35-.93,1.49,1.49,0,0,1,2,0,1.24,1.24,0,0,1,.34.93v4.73h3.57a1.21,1.21,0,0,1,.89.34,1.24,1.24,0,0,1,.34.93,1.17,1.17,0,0,1-.34.89,1.25,1.25,0,0,1-.89.38H63.05v6.82a19.62,19.62,0,0,0,.1,2.23,3.63,3.63,0,0,0,.38,1.51,1.76,1.76,0,0,0,.86.82,3.49,3.49,0,0,0,1.47.28l.65,0a3.23,3.23,0,0,1,.62,0,1.4,1.4,0,0,1,.58.17,1,1,0,0,1,.41.37,1.34,1.34,0,0,1,0,1.34,1.24,1.24,0,0,1-.44.41,1.45,1.45,0,0,1-.62.17,4.35,4.35,0,0,1-.72,0,8,8,0,0,1-3-.45,4.12,4.12,0,0,1-1.82-1.33,4.9,4.9,0,0,1-.92-2.23,16,16,0,0,1-.28-3.09Z"/><path class="cls-2" d="M74.23,196.75a1.34,1.34,0,1,1-2.68,0V185.16a7.86,7.86,0,0,0-.1-1.41,3.52,3.52,0,0,0-.45-1,3.27,3.27,0,0,1-.17-.31,1.17,1.17,0,0,1-.07-.38,1.18,1.18,0,0,1,.38-.89,1.3,1.3,0,0,1,.86-.31,1.24,1.24,0,0,1,.75.24,2.31,2.31,0,0,1,.62.69,10.51,10.51,0,0,1,2.4-1.1,8.93,8.93,0,0,1,2.3-.38,2,2,0,0,1,1.4.38,1.27,1.27,0,0,1,.38.93,1.39,1.39,0,0,1-.38,1,1.25,1.25,0,0,1-1,.35,9.82,9.82,0,0,0-2.05.1,5.24,5.24,0,0,0-2.3,1.13c0,.17,0,.35.07.48v12Z"/><path class="cls-2" d="M88.29,198.09a7,7,0,0,1-2.78-.48,5,5,0,0,1-2-1.27,5.33,5.33,0,0,1-1.24-2,6.87,6.87,0,0,1-.41-2.4v-5.72a7,7,0,0,1,.41-2.4,5.59,5.59,0,0,1,3.23-3.23,8.26,8.26,0,0,1,5.55,0,6.05,6.05,0,0,1,2,1.3,6,6,0,0,1,1.2,1.93,7,7,0,0,1,.41,2.4V192a6.87,6.87,0,0,1-.41,2.4,5.81,5.81,0,0,1-1.2,2,5.43,5.43,0,0,1-2,1.27A7,7,0,0,1,88.29,198.09Zm0-2.47A3.3,3.3,0,0,0,92,192v-5.76a3.67,3.67,0,0,0-.92-2.64,3.79,3.79,0,0,0-2.81-1,3.65,3.65,0,0,0-2.78,1,3.53,3.53,0,0,0-1,2.64V192a3.35,3.35,0,0,0,3.74,3.64Z"/><path class="cls-2" d="M109.07,176.52a1.24,1.24,0,0,1,.34-.93,1.49,1.49,0,0,1,2,0,1.24,1.24,0,0,1,.34.93v4.73h3.57a1.21,1.21,0,0,1,.89.34,1.24,1.24,0,0,1,.34.93,1.17,1.17,0,0,1-.34.89,1.25,1.25,0,0,1-.89.38h-3.57v6.82a22.27,22.27,0,0,0,.1,2.23,3.79,3.79,0,0,0,.38,1.51,1.8,1.8,0,0,0,.86.82,3.56,3.56,0,0,0,1.47.28l.65,0a3.18,3.18,0,0,1,.62,0,1.4,1.4,0,0,1,.58.17,1.08,1.08,0,0,1,.42.37,1.41,1.41,0,0,1,0,1.34,1.36,1.36,0,0,1-.45.41,1.45,1.45,0,0,1-.62.17,4.35,4.35,0,0,1-.72,0,8,8,0,0,1-3-.45,4.09,4.09,0,0,1-1.81-1.33,4.91,4.91,0,0,1-.93-2.23,16.06,16.06,0,0,1-.27-3.09Z"/><path class="cls-2" d="M123.19,174.91a1.64,1.64,0,1,1-.48-1.17A1.63,1.63,0,0,1,123.19,174.91Zm-.31,21.84a1.34,1.34,0,0,1-.37,1,1.36,1.36,0,0,1-1,.38,1.3,1.3,0,0,1-1.34-1.34V181.63a1.4,1.4,0,0,1,.38-1,1.34,1.34,0,0,1,1-.38,1.36,1.36,0,0,1,1,.38,1.39,1.39,0,0,1,.37,1Z"/><path class="cls-2" d="M134.89,198.05a12.75,12.75,0,0,1-1.89-.17,11.47,11.47,0,0,1-1.92-.48v6.48a1.24,1.24,0,0,1-.34.93,1.52,1.52,0,0,1-2,0,1.24,1.24,0,0,1-.34-.93V185.16a7.75,7.75,0,0,0-.11-1.41,3.8,3.8,0,0,0-.44-1,1.38,1.38,0,0,1-.17-.31,1,1,0,0,1-.07-.38,1.18,1.18,0,0,1,.37-.89,1.22,1.22,0,0,1,.83-.31,1.44,1.44,0,0,1,.75.21,3.07,3.07,0,0,1,.58.61,19.74,19.74,0,0,1,2.44-1.06,7.2,7.2,0,0,1,2.57-.44,4.78,4.78,0,0,1,4.08,1.78,7.48,7.48,0,0,1,1.37,4.7v4.45a14.44,14.44,0,0,1-.27,2.82,5.18,5.18,0,0,1-.93,2.16,4.69,4.69,0,0,1-1.78,1.44A6.48,6.48,0,0,1,134.89,198.05ZM131.08,195a7.42,7.42,0,0,0,1.82.55,11.54,11.54,0,0,0,1.64.17,3,3,0,0,0,2.64-1.1,6.1,6.1,0,0,0,.76-3.5v-4.45c0-2.71-1.1-4.08-3.33-4.08a6.31,6.31,0,0,0-1.85.3,8,8,0,0,0-1.85.86,9,9,0,0,1,.17,1.41Z"/><path class="cls-2" d="M150.11,198.09a7,7,0,0,1-2.78-.48,5,5,0,0,1-2-1.27,5.31,5.31,0,0,1-1.23-2,6.87,6.87,0,0,1-.41-2.4v-5.72a7,7,0,0,1,.41-2.4,5.44,5.44,0,0,1,1.23-1.93,5.59,5.59,0,0,1,2-1.3,8.29,8.29,0,0,1,5.56,0,6,6,0,0,1,2,1.3,5.66,5.66,0,0,1,1.2,1.93,6.76,6.76,0,0,1,.41,2.4V192a6.65,6.65,0,0,1-.41,2.4,5.51,5.51,0,0,1-1.2,2,5.39,5.39,0,0,1-2,1.27A7,7,0,0,1,150.11,198.09Zm0-2.47a3.77,3.77,0,0,0,2.81-1,3.73,3.73,0,0,0,.93-2.68v-5.76a3.63,3.63,0,0,0-.93-2.64,3.77,3.77,0,0,0-2.81-1,3.67,3.67,0,0,0-2.78,1,3.53,3.53,0,0,0-1,2.64V192a3.62,3.62,0,0,0,1,2.68A3.67,3.67,0,0,0,150.11,195.62Z"/></g></g></svg>