<svg xmlns="http://www.w3.org/2000/svg" viewBox="0 0 301.35 380.59"><defs><style>.cls-1{fill:#cf9e7d;}.cls-2{fill:#cb123f;}.cls-3{fill:#fff;}</style></defs><g id="Capa_2" data-name="Capa 2"><g id="Capa_1-2" data-name="Capa 1"><path id="Trazado_75" data-name="Trazado 75" class="cls-1" d="M125.57,84.9c-8.26-.55-8.86-4.7-6.17-10.78a65.14,65.14,0,0,0,2.88-9.28c3-11.2,3.39-11.93,13.37-7.35,7.25,3.32,15.25.3,21.88,4.86,2.17-9.81-9.94-11.06-10.63-19.81,1.5.52,2.4,1.12,3.26,1.08,2.79-.11,7.94,3.32,7.58,1.08-.76-4.81,8.73-8.32,1.1-13.56-3-2.07-.91-7.29,1.32-7.93,7-2,7.86-8.58,10.71-13.22,2.62-4.26,6.8-5.94,9.91-9.17,1.84-1.92,4.05-.13,3.77,1.92-.46,3.47,1.69,5.59,3,8.09,3.59,6.7,1.78,12.2-2.63,17.9-3.57,4.62-8,9-6.51,16.2s7.76,13.42,15.16,12.26c9.78-1.54,16.62,5.41,25,8,.55.18,1.35,1.31,1.22,1.75-3.74,12.5,5.9,21.11,9.4,31.43,1.8,5.26,2.78,9.51-.36,14.36a21.15,21.15,0,0,0-2.44,6.8c-3.13,13.95-2.88,14.1,9.64,20.64,9.33,4.89,18.44,10.19,27.61,15.39,1.34.76,3.56,2.1,3.47,3-1.33,12,9.15,16.81,15.57,22.59,7.76,7,5.49,13.08,2.77,19.71-4.58,11.18-4.3,23.16-6.83,34.64,6.4,4.17,4.7,10.88,6.06,16.89.81,3.56,7.7,2.6,11.55,4.56,2.23,1.14,5.8.78,5,4.88-.7,3.7-3.59.88-5.13,1.67-4.07,2.06-11.26.59-11.86,6.21-.62,5.92-2.45,12.65,3.26,18.24,8.4,8.2,8,9-2.18,12.83.52,2.86,3.08,4.27,4.61,6.39s3.57,4-.63,5.3c-5.83,1.78-3.63,5.18-2,8.77,5.83,12.79,2.54,30.58-7.12,38.84-1.5,1.29-2.78,3.73-5.45,2.12-8.46-5.08-18.29-3.8-27.41-5.84-7-1.57-10.77,3.84-14.31,8.62-3.81,5.14-5,13.71-11,15.3-5.62,1.49-12.52-1.8-18.85-3-2.66-.51-5.28-1.41-7.95-1.55-11.26-.61-18.73-5.49-20.32-17.35-.57-4.26-3.06-5.4-7.22-5.68-16.49-1.12-32.93-2.82-49.41-4a19.33,19.33,0,0,1-11-4.2c-7.06-5.47-14.15-11-21.69-15.73A27.75,27.75,0,0,1,74,314.6c-4.37-11.9-9.24-23.86-11.45-36.23C61,269.62,55.66,263.07,53,255.1c-1-3-6.48-5.16-10.33-6.24-6-1.7-6.53-4.78-5.18-10.15,2.73-10.81,1.17-13.4-9.88-15.76-6.54-1.4-5.21-3.8-2-7.39s7.14-6.69,2.25-12.21c-2-2.33.94-5.06,2.83-6.78,8-7.25,13.71-15.52,16.22-26.4,1.36-5.88,6.29-10.63,11.11-14.61,2.06-1.7,4.58-6.42,7.09.25,1,2.74,2.7-.07,4.17-1,10.25-6.52,16.67-17.25,26.77-24,4.38-2.92,10.59-3.15,13.18-8.7,1.8-3.83,7.93-5.65,4-12.24-1.85-3.13,4-6.22,5.2-10.62S121.47,89.25,125.57,84.9Z"/><path id="Trazado_75-2" data-name="Trazado 75-2" class="cls-2" d="M102.62,84.9c-8.25-.56-8.85-4.7-6.17-10.78a63.92,63.92,0,0,0,2.89-9.28c3-11.19,3.39-11.93,13.37-7.35,7.25,3.32,15.25.3,21.88,4.86,2.17-9.81-9.94-11.06-10.63-19.81,1.5.52,2.39,1.12,3.26,1.08,2.79-.11,7.94,3.32,7.58,1.08-.77-4.81,8.72-8.32,1.1-13.56-3-2.07-.91-7.28,1.32-7.93,7-2,7.85-8.58,10.71-13.22,2.62-4.26,6.8-5.94,9.91-9.17,1.83-1.92,4-.14,3.77,1.92-.46,3.47,1.68,5.59,3,8.09,3.59,6.7,1.79,12.2-2.62,17.9-3.58,4.62-8,9-6.51,16.2s7.75,13.41,15.16,12.26c9.78-1.54,16.62,5.4,25,8,.56.17,1.35,1.31,1.22,1.75-3.74,12.5,5.9,21.11,9.41,31.43,1.8,5.26,2.78,9.51-.36,14.36a20.91,20.91,0,0,0-2.44,6.8c-3.13,13.94-2.88,14.09,9.64,20.64,9.33,4.88,18.44,10.18,27.6,15.38,1.35.76,3.57,2.1,3.47,3-1.32,12,9.15,16.81,15.57,22.59,7.77,7,5.5,13.08,2.77,19.71-4.58,11.18-4.3,23.15-6.83,34.64,6.4,4.17,4.7,10.87,6.06,16.88.81,3.56,7.7,2.61,11.55,4.57,2.23,1.13,5.8.77,5,4.87-.7,3.71-3.59.89-5.14,1.67-4.07,2.07-11.26.6-11.86,6.21-.62,5.92-2.45,12.66,3.27,18.24,8.4,8.21,8,9-2.19,12.84.53,2.85,3.09,4.27,4.61,6.39s3.58,4-.62,5.3c-5.84,1.77-3.64,5.17-2,8.77,5.82,12.78,2.53,30.57-7.12,38.84-1.5,1.28-2.79,3.72-5.46,2.12-8.46-5.08-18.29-3.8-27.41-5.84-7-1.57-10.76,3.83-14.31,8.61-3.81,5.14-5,13.71-11,15.3-5.63,1.49-12.53-1.8-18.86-3-2.65-.5-5.28-1.4-7.94-1.55C161,375,153.56,370.15,152,358.3c-.57-4.27-3.06-5.41-7.22-5.69-16.48-1.12-32.93-2.81-49.41-4a19.21,19.21,0,0,1-11-4.2c-7.06-5.46-14.15-11-21.68-15.72a27.79,27.79,0,0,1-11.58-14.12c-4.37-11.9-9.23-23.86-11.45-36.23-1.57-8.75-6.9-15.3-9.57-23.26-1-3-6.48-5.17-10.33-6.25-6-1.69-6.53-4.78-5.17-10.15,2.73-10.81,1.16-13.4-9.88-15.76-6.55-1.4-5.21-3.8-2-7.39s7.14-6.69,2.26-12.22c-2.06-2.32.93-5.06,2.83-6.77,8-7.25,13.7-15.53,16.22-26.4,1.36-5.88,6.29-10.63,11.1-14.61,2.06-1.7,4.58-6.42,7.1.24,1,2.75,2.69-.06,4.17-1,10.24-6.52,16.66-17.24,26.76-24,4.38-2.92,10.6-3.16,13.19-8.7,1.8-3.83,7.93-5.65,4-12.24-1.86-3.13,4-6.23,5.2-10.63S98.52,89.25,102.62,84.9Z"/><path id="Trazado_76" data-name="Trazado 76" class="cls-3" d="M143.27,236.36a.61.61,0,0,1-.09-.42l-.3-54.85c0-1.86,0-3.71,0-5.57a1,1,0,0,1,.37-.77,36,36,0,0,1,14.33-7.57,52.5,52.5,0,0,1,8.61-1.63,74.16,74.16,0,0,1,11.25-.29,87.2,87.2,0,0,1,14.76,1.92c.74.16,1.47.35,2.21.51a.66.66,0,0,1,.56.54q2.67,8.37,5.36,16.72,5.65,17.61,11.28,35.21.95,2.91,1.87,5.83c.05.15.2.35.06.47s-.3,0-.45-.1a135,135,0,0,0-13.55-4,99.46,99.46,0,0,0-9.83-1.84,71.88,71.88,0,0,0-13.75-.6,48.87,48.87,0,0,0-18,4.3,35.45,35.45,0,0,0-14.52,11.93Z"/><path id="Trazado_77" data-name="Trazado 77" class="cls-3" d="M139.73,236.2c-.59-.76-1.16-1.53-1.77-2.27a36.7,36.7,0,0,0-14.79-10.63,47.28,47.28,0,0,0-10.83-2.92,61.65,61.65,0,0,0-11.52-.6c-2,.09-3.95.21-5.92.43a93.6,93.6,0,0,0-9.26,1.54,128.06,128.06,0,0,0-15.72,4.49c-.16.06-.35.22-.48.11s0-.35.08-.51q6.7-20.85,13.4-41.7c1.69-5.26,3.39-10.51,5.06-15.78a1.1,1.1,0,0,1,.91-.84,90.41,90.41,0,0,1,9-1.68,84.76,84.76,0,0,1,13.7-.76,52.26,52.26,0,0,1,18,3.37,34.24,34.24,0,0,1,10.16,6.14,1.2,1.2,0,0,1,.46,1q-.18,28.54-.34,57.1c0,1.16,0,2.31,0,3.47Z"/><path id="Trazado_78" data-name="Trazado 78" class="cls-3" d="M193.23,245.41h-44a1.74,1.74,0,0,0-1.58.77,6.92,6.92,0,0,1-11.46-.16,1.24,1.24,0,0,0-1.14-.61H46.6c-.62,0-.62,0-.42-.61q9.68-29,19.34-57.91,2.13-6.37,4.24-12.75a.59.59,0,0,1,.69-.48c1.28,0,2.57,0,3.86,0,.59,0,.59,0,.42.56L69.6,191.9q-6.93,23.86-13.87,47.71a.82.82,0,0,0,.18,1,.87.87,0,0,0,1,.07q5.12-2,10.34-3.77a131,131,0,0,1,16.86-4.42,98.3,98.3,0,0,1,22-1.87,69.81,69.81,0,0,1,21.74,4.09,45.35,45.35,0,0,1,12.25,6.6c.28.22.55.45.82.68a1.6,1.6,0,0,0,2.25.13l.12-.12a39.62,39.62,0,0,1,9.11-5.59A58.9,58.9,0,0,1,166.09,232a78.53,78.53,0,0,1,17.38-1.35c3.37.1,6.72.38,10.07.81a116.31,116.31,0,0,1,14.31,2.8,155.52,155.52,0,0,1,19.28,6.4l.19.07a.83.83,0,0,0,1-.07.84.84,0,0,0,.18-.94q-.72-2.44-1.42-4.87-7.67-26.35-15.35-52.7c-.76-2.63-1.53-5.26-2.29-7.89-.16-.55-.16-.55.42-.55,1.28,0,2.57,0,3.86,0a.6.6,0,0,1,.71.48v0q3.35,10.13,6.74,20.25l12,35.89q2.41,7.22,4.81,14.44c.2.59.2.59-.43.59Z"/><path id="Trazado_79" data-name="Trazado 79" class="cls-3" d="M144.66,237.78a10.86,10.86,0,0,1,1.75-2.29,38.75,38.75,0,0,1,16.14-10.32,48.36,48.36,0,0,1,8.54-2.08A63.89,63.89,0,0,1,184,222.5c1.89.1,3.78.25,5.66.47a104.25,104.25,0,0,1,10.82,1.92,139.16,139.16,0,0,1,16.24,4.89c.39.14.77.29,1.12,0s.16-.7,0-1.07q-5.18-16.29-10.37-32.59-3.36-10.56-6.73-21.11c-.19-.59-.18-.6.45-.6,1.29,0,2.57,0,3.85,0,.46,0,.62.16.74.58q4.6,15.9,9.22,31.79,4.48,15.47,9,30.93c0,.17.2.37.05.5s-.32,0-.47-.11a155.15,155.15,0,0,0-18.48-5.91q-5.32-1.32-10.73-2.17a96.15,96.15,0,0,0-16.43-1.2,81.17,81.17,0,0,0-9.35.68,62.77,62.77,0,0,0-17.9,5,44.56,44.56,0,0,0-5.64,3.07Z"/><path id="Trazado_80" data-name="Trazado 80" class="cls-3" d="M139.15,237.81l-1.42-.88a55.07,55.07,0,0,0-16.29-6.38,73.29,73.29,0,0,0-9.65-1.49A88.76,88.76,0,0,0,99,228.89a108.47,108.47,0,0,0-15.22,2A147.51,147.51,0,0,0,60,238c-.16.06-.35.25-.5.1s0-.31.07-.46l13.8-47.25q2.28-7.8,4.53-15.61a.53.53,0,0,1,.59-.46h0q2,0,4,0c.5,0,.49.15.37.55q-2.72,8.35-5.39,16.71l-11.88,37c-.13.4-.24.77.12,1.1s.72.17,1.08,0a137.7,137.7,0,0,1,14.28-4.41,105,105,0,0,1,10.51-2.08A77.84,77.84,0,0,1,105,222.4a51.66,51.66,0,0,1,19,3.82,37.26,37.26,0,0,1,14.83,11l.21.28.18.24Z"/></g></g></svg>