<svg xmlns="http://www.w3.org/2000/svg" viewBox="0 0 60.87 60.87"><defs><style>.cls-1{fill:none;stroke:#242424;stroke-miterlimit:10;stroke-width:2px;}.cls-2{fill:#242424;}</style></defs><g id="Capa_2" data-name="Capa 2"><g id="Capa_1-2" data-name="Capa 1"><rect id="Rectángulo_35-2" data-name="Rectángulo 35-2" class="cls-1" x="1" y="1" width="58.87" height="58.87" rx="12.91"/><g id="Grupo_28" data-name="Grupo 28"><path id="Trazado_69-2" data-name="Trazado 69-2" class="cls-2" d="M27.86,21.76c0,1,0,2.46-.12,4.43s-.12,3.45-.13,4.45v8.52c0,.24-.12.35-.37.35l-.94,0-.94,0c-.22,0-.56,0-1-.06s-.79,0-1,0-.34-.14-.56-.42c-.62-.84-2-2.7-4.19-5.57-.6-.8-1.5-2-2.72-3.54a.58.58,0,0,0-.19-.16.33.33,0,0,0-.1.28c0,1,0,2.5.08,4.5s.09,3.5.09,4.5c0,.31-.12.46-.35.46H10.93a.35.35,0,0,1-.38-.4c0-.94,0-2.34.14-4.22s.13-3.29.13-4.23,0-2.48-.12-4.46-.12-3.45-.12-4.43c0-.19.17-.29.5-.29.5,0,1.12,0,1.85-.1.18,0,.52-.07,1-.17a6.77,6.77,0,0,1,1-.12c.1,0,.26.15.48.44l4.82,6.62,2,2.61c.21.27.4.4.55.4s.17-.33.17-1c0-.91-.05-2.27-.15-4.09s-.15-3.19-.15-4.1c0-.32.1-.48.28-.48.51,0,1.3,0,2.34-.06s1.82-.07,2.34-.07C27.78,21.36,27.86,21.49,27.86,21.76Z"/><path id="Trazado_70-2" data-name="Trazado 70-2" class="cls-2" d="M42.86,33.15a6.52,6.52,0,0,1-1.8,4.79,7,7,0,0,1-9.42,0A6.25,6.25,0,0,1,29.8,33.3a6.78,6.78,0,0,1,1.76-4.87,6.21,6.21,0,0,1,4.76-1.87,6.39,6.39,0,0,1,4.74,1.83A6.47,6.47,0,0,1,42.86,33.15Zm-4.24,0a2.8,2.8,0,0,0-.63-1.8,2.06,2.06,0,0,0-1.65-.79,2.11,2.11,0,0,0-1.68.8,2.9,2.9,0,0,0,0,3.59,2.16,2.16,0,0,0,3,.33A2.57,2.57,0,0,0,38,35a2.75,2.75,0,0,0,.61-1.8Z"/><path id="Trazado_71-2-2" data-name="Trazado 71-2-2" class="cls-2" d="M50.33,36.68a3,3,0,0,1-5.13,2.24l-.06-.06a3.13,3.13,0,0,1,0-4.36,3,3,0,0,1,4.25,0h0l0,0A3,3,0,0,1,50.33,36.68Z"/></g></g></g></svg>