<svg xmlns="http://www.w3.org/2000/svg" viewBox="0 0 60.87 60.87"><defs><style>.cls-1{fill:#242424;}.cls-1,.cls-2{stroke:#242424;}.cls-2{fill:none;stroke-miterlimit:10;stroke-width:2px;}</style></defs><g id="Capa_2" data-name="Capa 2"><g id="Capa_1-2" data-name="Capa 1"><g id="Grupo_27" data-name="Grupo 27"><g id="Grupo_28-2" data-name="Grupo 28-2"><path id="Trazado_108-2" data-name="Trazado 108-2" class="cls-1" d="M43.55,11.87a1.86,1.86,0,0,1,1.17,2q0,10.68,0,21.37a3.77,3.77,0,0,1-.78,2.37Q40,42.73,36.14,47.91A4.18,4.18,0,0,1,34.64,49H17.32a1.85,1.85,0,0,1-1.17-2q0-16.62,0-33.23a1.85,1.85,0,0,1,1.17-2ZM17.65,30.4c0,5.42,0,10.84,0,16.25,0,.66.12.89.84.88q7.45,0,14.93,0c.66,0,.83-.18.82-.82,0-3.11,0-6.22,0-9.32,0-1.31.49-1.8,1.79-1.8,2.12,0,4.24,0,6.35,0,.67,0,.89-.15.89-.85q0-10.28,0-20.54c0-.68-.16-.87-.86-.87q-12,0-23.92,0c-.63,0-.83.14-.83.8,0,5.42,0,10.84,0,16.25Zm18,15.36.19.06L42.49,37h-6.3c-.31,0-.52.06-.52.44v8.29Z"/></g><rect id="Rectángulo_35" data-name="Rectángulo 35" class="cls-2" x="1" y="1" width="58.87" height="58.87" rx="12.91"/></g></g></g></svg>