<svg xmlns="http://www.w3.org/2000/svg" viewBox="0 0 60.87 60.87"><defs><style>.cls-1{fill:#242424;}.cls-2{fill:none;stroke:#242424;stroke-miterlimit:10;stroke-width:2px;}</style></defs><g id="Capa_2" data-name="Capa 2"><g id="Capa_1-2" data-name="Capa 1"><g id="Grupo_26-2" data-name="Grupo 26-2"><path id="Trazado_103-2" data-name="Trazado 103-2" class="cls-1" d="M29.55,42.32a26.22,26.22,0,0,0-3.43-1.93,20.35,20.35,0,0,0-10.86-2c-.51.05-.56-.11-.56-.55q0-11.24,0-22.48c0-.47.13-.6.6-.65a21.82,21.82,0,0,1,14,3.73c.28.18.27.4.27.67V42.32Z"/><path id="Trazado_104-2" data-name="Trazado 104-2" class="cls-1" d="M31.32,42.24v-.57q0-11.2,0-22.42a.91.91,0,0,1,.47-.89A22.07,22.07,0,0,1,44.69,14.7c1.46.07,1.46.05,1.46,1.52q0,10.85,0,21.68c0,.4,0,.59-.52.54A21.34,21.34,0,0,0,31.88,42,1.24,1.24,0,0,1,31.32,42.24Z"/><path id="Trazado_105-2" data-name="Trazado 105-2" class="cls-1" d="M29.47,46.08c-6.18-2.72-12.35-2-18.49.11a1.19,1.19,0,0,1-.07-.59q0-12.26,0-24.52c0-.47.13-.7.58-.8a10.73,10.73,0,0,0,1.26-.37c.27-.09.35,0,.34.25s0,.28,0,.42V41.69c0,.79,0,.79.7.51a16.54,16.54,0,0,1,5.11-1.08,22.57,22.57,0,0,1,9.82,1.52c.61.24.92.55.84,1.26a20,20,0,0,0,0,2.05A.31.31,0,0,1,29.47,46.08Z"/><path id="Trazado_106-2" data-name="Trazado 106-2" class="cls-1" d="M47.87,19.83l1.84.57a.33.33,0,0,1,.25.39V45.58c0,.65,0,.64-.59.44a29.58,29.58,0,0,0-10.09-1.7,19.63,19.63,0,0,0-7.44,1.59c-.49.22-.53.09-.51-.36a16.52,16.52,0,0,0,0-2,.69.69,0,0,1,.49-.75,18.71,18.71,0,0,1,5.28-1.48,20.21,20.21,0,0,1,9.49.67l.35.12c.87.33.87.33.87-.58v-21A1.39,1.39,0,0,1,47.87,19.83Z"/></g><rect id="Rectángulo_33" data-name="Rectángulo 33" class="cls-2" x="1" y="1" width="58.87" height="58.87" rx="12.91"/></g></g></svg>