<svg xmlns="http://www.w3.org/2000/svg" viewBox="0 0 44.98 44.98"><defs><style>.cls-1{fill:#cf9e7d;}</style></defs><g id="Capa_2" data-name="Capa 2"><g id="Capa_1-2" data-name="Capa 1"><g id="Grupo_10" data-name="Grupo 10"><path id="Trazado_59" data-name="Trazado 59" class="cls-1" d="M35.3,45H9.68A9.7,9.7,0,0,1,0,35.3V9.68A9.7,9.7,0,0,1,9.68,0H35.3A9.7,9.7,0,0,1,45,9.68V35.3A9.7,9.7,0,0,1,35.3,45ZM9.68,3.5A6.18,6.18,0,0,0,3.5,9.68V35.3a6.18,6.18,0,0,0,6.18,6.18H35.3a6.2,6.2,0,0,0,6.18-6.18V9.68A6.19,6.19,0,0,0,35.3,3.5Z"/></g><path class="cls-1" d="M36.93,14.17a2.15,2.15,0,0,1-.59,1.16,5.69,5.69,0,0,1-1.21,1.14,1.2,1.2,0,0,0-.55,1.11A18,18,0,0,1,33.92,22,15.74,15.74,0,0,1,28,30.85a15.31,15.31,0,0,1-6.59,2.75,17,17,0,0,1-5.28.18A16.84,16.84,0,0,1,10,31.5s0-.07-.07-.09a11.31,11.31,0,0,0,8-2.36,6.79,6.79,0,0,1-3.2-1.2,6,6,0,0,1-2-2.82A9.6,9.6,0,0,0,14.93,25a6.5,6.5,0,0,1-3.45-2.61,6.72,6.72,0,0,1-.84-3.06,4.8,4.8,0,0,0,2.26.58,6,6,0,0,1-2.25-4.3,5.26,5.26,0,0,1,.62-3.32,24,24,0,0,0,3.2,2.87A15.52,15.52,0,0,0,21.37,18c.44.07.88.11,1.32.17.2,0,.27,0,.23-.25-.74-3.14,1.54-5.83,4.54-6.46a5,5,0,0,1,5.14,1.49A.32.32,0,0,0,33,13a12.11,12.11,0,0,0,2.62-.9l.72-.32A6.07,6.07,0,0,1,34,15,12.3,12.3,0,0,0,36.93,14.17Z"/></g></g></svg>