<svg xmlns="http://www.w3.org/2000/svg" viewBox="0 0 50.84 53.22"><defs><style>.cls-1{fill:#cb123f;}.cls-2{fill:#fff;}</style></defs><g id="Capa_2" data-name="Capa 2"><g id="Capa_1-2" data-name="Capa 1"><rect id="Rectángulo_170" data-name="Rectángulo 170" class="cls-1" width="50.84" height="53.22" rx="11"/><g id="Grupo_57" data-name="Grupo 57"><g id="Grupo_10-2" data-name="Grupo 10-2"><path id="Trazado_59-2" data-name="Trazado 59-2" class="cls-2" d="M34.43,42.43h-18a6.82,6.82,0,0,1-6.8-6.81v-18a6.8,6.8,0,0,1,6.8-6.81h18a6.82,6.82,0,0,1,6.81,6.81v18A6.82,6.82,0,0,1,34.43,42.43Zm-18-29.17a4.35,4.35,0,0,0-4.35,4.35v18A4.35,4.35,0,0,0,16.42,40h18a4.35,4.35,0,0,0,4.34-4.35v-18a4.34,4.34,0,0,0-4.34-4.35Z"/></g><path id="Trazado_103" data-name="Trazado 103" class="cls-2" d="M35.58,20.76a1.58,1.58,0,0,1-.42.82,3.8,3.8,0,0,1-.85.8.87.87,0,0,0-.39.78,12.41,12.41,0,0,1-.46,3.08,11.1,11.1,0,0,1-4.16,6.25,10.83,10.83,0,0,1-4.64,1.94,11.85,11.85,0,0,1-3.71.12A11.51,11.51,0,0,1,16.67,33s0-.05-.05-.06a8,8,0,0,0,5.63-1.66A4.93,4.93,0,0,1,20,30.39a4.25,4.25,0,0,1-1.4-2,6.28,6.28,0,0,0,1.5,0,4.51,4.51,0,0,1-2.42-1.83,4.65,4.65,0,0,1-.59-2.15,3.51,3.51,0,0,0,1.59.41,4.25,4.25,0,0,1-1.58-3,3.65,3.65,0,0,1,.43-2.33,17.26,17.26,0,0,0,2.25,2,11.06,11.06,0,0,0,4.85,2l.93.12c.14,0,.19,0,.16-.18a3.84,3.84,0,0,1,3-4.51l.16,0a3.53,3.53,0,0,1,3.62,1,.23.23,0,0,0,.25.07,8.33,8.33,0,0,0,1.84-.63l.51-.23a4.29,4.29,0,0,1-1.61,2.22A8.42,8.42,0,0,0,35.58,20.76Z"/></g></g></g></svg>