<svg xmlns="http://www.w3.org/2000/svg" viewBox="0 0 21.32 36.42"><defs><style>.cls-1{fill:#bc1733;}</style></defs><g id="Capa_2" data-name="Capa 2"><g id="Capa_1-2" data-name="Capa 1"><g id="Grupo_5" data-name="Grupo 5"><path id="Trazado_54" data-name="Trazado 54" class="cls-1" d="M10.68,36.42c-.54-1.12-1.07-2.21-1.59-3.3-2.34-4.89-4.7-9.77-6.76-14.79-.7-1.7-1.33-3.44-1.9-5.2A9.25,9.25,0,0,1,.79,6.6,10.7,10.7,0,0,1,21.22,8.86a10.46,10.46,0,0,1-.62,5.25c-1.14,3.36-2.57,6.6-4,9.84-1.87,4.14-3.89,8.21-5.8,12.33ZM3.85,10.67A6.82,6.82,0,1,0,10.7,3.88a6.83,6.83,0,0,0-6.85,6.79Z"/></g></g></g></svg>