<svg xmlns="http://www.w3.org/2000/svg" viewBox="0 0 44.99 31.43"><defs><style>.cls-1{fill:#cf9e7d;}</style></defs><g id="Capa_2" data-name="Capa 2"><g id="Capa_1-2" data-name="Capa 1"><path class="cls-1" d="M22.64,31.43c-1.38,0-2.94,0-4.5-.05-1.3,0-2.6-.06-3.9-.1-1,0-2.05-.09-3.07-.15-.86-.05-1.72-.1-2.57-.17-1-.09-2-.2-3-.35A5.62,5.62,0,0,1,1,26.56c-.16-.62-.27-1.25-.37-1.88-.16-1-.26-2-.35-2.94q-.08-.93-.12-1.86C0,18,0,16.15,0,14.28c0-1.22.08-2.45.16-3.68.06-.73.12-1.47.2-2.21A28.45,28.45,0,0,1,.88,5.08,5.44,5.44,0,0,1,3.09,1.82,5.47,5.47,0,0,1,4.77,1,9.58,9.58,0,0,1,6,.78C7.08.61,8.2.5,9.32.41L12.11.23c1.73-.09,3.46-.14,5.2-.18C20.43,0,23.55,0,26.67,0c1,0,2.06,0,3.09.07,1.22,0,2.43.08,3.65.14l2.87.18c.9.06,1.79.15,2.68.28a6.57,6.57,0,0,1,2.75,1A5.52,5.52,0,0,1,44,5.13a29.28,29.28,0,0,1,.52,2.92c.15,1.2.25,2.41.32,3.62.11,1.89.12,3.79.09,5.68,0,1-.07,2-.14,3-.09,1.27-.21,2.54-.39,3.8-.11.75-.23,1.5-.4,2.24a5.46,5.46,0,0,1-1.76,2.86,5.69,5.69,0,0,1-2.84,1.32c-.95.16-1.91.27-2.87.36-1.29.12-2.58.19-3.87.26s-2.73.1-4.1.14C26.68,31.41,24.75,31.43,22.64,31.43ZM18.14,9c0,.3,0,13.33,0,13.45.2-.07,11.62-6.63,11.72-6.73Z"/></g></g></svg>